<?xml version="1.0" standalone="no"?>
<!DOCTYPE svg PUBLIC "-//W3C//DTD SVG 20010904//EN"
        "http://www.w3.org/TR/2001/REC-SVG-20010904/DTD/svg10.dtd">
<svg version="1.0" xmlns="http://www.w3.org/2000/svg"
     width="700.000000pt" height="700.000000pt" viewBox="0 0 700.000000 700.000000"
     preserveAspectRatio="xMidYMid meet">
    <metadata>
        Created by potrace 1.11, written by Peter Selinger 2001-2013
    </metadata>
    <g transform="translate(0.000000,700.000000) scale(0.100000,-0.100000)"
       fill="#000000" stroke="none">
        <path d="M4951 6609 c-215 -29 -482 -126 -705 -257 l-48 -28 -87 23 c-108 29
-392 85 -576 113 -197 31 -584 39 -780 16 -395 -46 -809 -177 -1139 -362 -560
-313 -1008 -779 -1291 -1344 -153 -305 -244 -594 -296 -940 -27 -175 -32 -567
-11 -740 94 -761 477 -1459 1072 -1957 512 -428 1119 -682 1782 -744 187 -17
624 -7 798 19 163 25 319 61 460 106 l105 34 1339 6 c1459 7 1388 4 1415 62 8
18 11 568 11 2095 0 1862 -2 2074 -16 2104 -34 72 -24 69 -353 75 l-296 5 -5
427 c-5 411 -6 428 -26 454 -11 15 -33 37 -48 48 -26 20 -42 21 -348 24 -291
3 -322 1 -339 -14 -19 -17 -19 -9 -20 332 -1 192 -4 362 -8 378 -3 16 -19 38
-34 50 -27 20 -42 21 -255 23 -125 1 -260 -3 -301 -8z m377 -275 l22 -6 0
-1719 0 -1719 -22 0 c-33 0 -209 -44 -303 -75 -362 -121 -719 -323 -1065 -604
-208 -168 -502 -477 -671 -705 l-64 -87 -3 1725 -2 1724 31 89 c131 371 438
725 879 1016 144 95 358 205 507 261 110 42 310 93 413 105 74 10 234 6 278
-5z m812 -2647 l0 -1923 -257 -12 c-142 -6 -319 -19 -393 -27 -846 -100 -1522
-381 -2062 -858 -43 -38 -78 -63 -78 -55 0 7 5 51 10 97 52 412 418 877 990
1258 393 262 827 438 1203 488 l47 6 0 1475 0 1474 270 0 270 0 0 -1923z m630
-947 l0 -1950 -1495 0 c-862 0 -1495 4 -1495 9 0 13 121 109 220 176 105 70
407 220 555 274 326 121 664 196 1085 243 71 8 246 13 456 13 l341 0 6 530 c4
292 7 1008 7 1593 l0 1062 160 0 160 0 0 -1950z"/>
    </g>
</svg>
