<?xml version="1.0" encoding="UTF-8"?>
<!DOCTYPE svg PUBLIC "-//W3C//DTD SVG 1.1//EN" "http://www.w3.org/Graphics/SVG/1.1/DTD/svg11.dtd">
<!-- Creator: CorelDRAW 2019 (64-Bit) -->
<svg xmlns="http://www.w3.org/2000/svg" xml:space="preserve" width="1000px" height="1000px" version="1.1"
     style="shape-rendering:geometricPrecision; text-rendering:geometricPrecision; image-rendering:optimizeQuality; fill-rule:evenodd; clip-rule:evenodd"
     viewBox="0 0 1000 1000"
>
 <defs>
  <style type="text/css">
   <![CDATA[
    .fil1 {fill:#FEFEFE}
    .fil0 {fill:#FF8120}
   ]]>
  </style>
 </defs>
    <g id="Слой_x0020_1">
  <metadata id="CorelCorpID_0Corel-Layer"/>
        <path class="fil0"
              d="M607.2 920.53c-50.19,19.64 -108.02,27.28 -167.48,25.64 -242.78,-6.54 -439.72,-200.76 -439.72,-434.8 0,-248.23 218.77,-459.9 477.91,-437.53 26.18,2.18 96.56,14.18 121.65,22.91 62.2,-38.19 114.03,-47.46 180.04,-41.46 7.63,1.09 11.45,3.27 12.54,11.45l1.1 102.57c2.18,-3.28 2.72,-4.37 7.63,-4.91l84.57 0.54c12,1.64 17.45,10.37 19.09,18.55l0.43 117.3 76.49 0c11.46,0.54 18,9.27 18.55,20.18l0 587.02c-1.09,8.18 -8.73,12 -18,12.54l-373.71 0.55 -1.09 -0.55z"/>
        <path class="fil1" d="M920.35 785.78c-194.69,-13.2 -333.73,53.07 -381.57,100.8l428.85 0 0 -557.12 -45.67 0 -1.61 456.32z"/>
        <path class="fil1" d="M800.33 619.93c-129.59,11.83 -323.1,146.52 -321.33,266.23 116.13,-111.02 271.73,-138.16 398.35,-137.3l0 -549.93 -77.02 0 0 421z"/>
        <path class="fil1" d="M459.36 308.02l-0.01 491.4c85.09,-121.95 207.19,-196.88 304.76,-212.95l0 -490.77c-90.91,-20.14 -274.11,86.47 -304.75,212.32z"/>
 </g>
</svg>
