<svg xmlns="http://www.w3.org/2000/svg" width="200" height="179" viewBox="0 0 183.1 163.7"
     style="clip-rule:evenodd;fill-rule:evenodd;image-rendering:optimizeQuality;shape-rendering:geometricPrecision;text-rendering:geometricPrecision;version:1">
    <defs>
        <style type="text/css">
            .orange {fill:#FF8120}
        </style>
    </defs>
    <path class="orange"
          d="M111.3 159c-9.2 3.6-19.8 5-30.7 4.7-44.5-1.2-80.6-36.8-80.6-79.7 0-45.5 40.1-84.3 87.6-80.2 4.8 0.4 17.7 2.6 22.3 4.2 11.4-7 20.9-8.7 33-7.6 1.4 0.2 2.1 0.6 2.3 2.1l0.2 18.8c0.4-0.6 0.5-0.8 1.4-0.9l15.5 0.1c2.2 0.3 3.2 1.9 3.5 3.4l0.1 23.9c0.8-1.5 1.1-2.1 2.6-2.4l11.4 0c2.1 0.1 3.3 1.7 3.4 3.7l0 107.6c-0.2 1.5-1.6 2.2-3.3 2.3l-68.5 0.1zm-19-3.5l87.4 0 0-106.4-10.7 0-0.3 85.2c-18.3-0.7-70.6 10.8-76.3 21.3zm-8.1-113.9c3.8-20.5 38.6-41.7 57.5-37.9l0 96.8c-8.7-0.3-24.3 4.2-38.7 16.6-3 2.6-11.8 15.3-18.8 19.7l0-95.2zm77.9-17.8l-15.4 0c0 26.6 0 53.5 0 80.1-20.8 1.3-59.4 25.9-58.9 48.8 18.5-19.8 55.3-24.6 74.3-23.7l0-105.2 0 0z"/>
</svg>