<?xml version="1.0" encoding="UTF-8" standalone="no"?>
<!DOCTYPE svg PUBLIC "-//W3C//DTD SVG 1.1//EN" "http://www.w3.org/Graphics/SVG/1.1/DTD/svg11.dtd">
<svg version="1.1" xmlns="http://www.w3.org/2000/svg" xmlns:xlink="http://www.w3.org/1999/xlink" preserveAspectRatio="xMidYMid meet" viewBox="0 0 300 300"
     width="300" height="300">
    <defs>
        <path d="M19.98 282.5C26.89 279.94 82.22 259.38 89.14 256.81C97.17 252.55 104.36 250.44 108.24 240.68C111.15 233.33 112.34 223.9 108.33 213.12C102.33 206.51 102.42 204.47 98.74 198.2C95.77 193.11 97.24 185.34 97.24 179.46C92.05 180.91 88.59 182.98 87.7 173.39C86.98 165.68 79.42 149.04 82.19 144.54C85.03 139.53 90.74 140.32 90.77 142.03C90.68 139.23 86.45 131.55 85.39 125.17C83.29 112.48 85.3 90.39 89.52 78.18C91.89 71.33 110.05 53.35 117.98 53.49C117.55 52.01 113.29 48.85 121.25 48.85C122.73 48.85 129.09 49.62 129.68 48.52C132.57 43.23 151.35 42.91 152.31 44C152.73 44.47 157.25 47.03 157.81 47.14C162.83 48.25 163.37 43.7 169.46 47.53C172 49.14 169.92 45.77 172.87 45.77C173.88 45.77 177 48.81 177.01 48.85C181.94 49.38 181.36 49.03 184.63 53.29C187 56.41 185.32 58.88 187.63 59.2C189.18 59.41 199.52 55.26 199.49 57.45C199.41 62.28 199.16 62.22 207.96 67.16C214.45 70.79 216.44 81.67 215.3 89.65C215.68 107.85 214.72 125.09 210.1 142.52C214.82 139.37 217.57 140.18 217.42 144.42C217.31 147.64 218.88 153.38 213.79 159.78C210.96 163.36 212.87 171.35 211.28 175.12C209.01 180.51 208.22 180.92 201.99 179.94C203.7 189.37 199.66 199.89 193.48 209.15C188.47 216.67 182.76 249.07 210.89 255.91C237.21 262.32 276.71 277.47 290.32 288.43C301.93 299.21 299.08 312.68 303.46 324.82C283 324.82 180.69 324.82 -3.46 324.82L-3.46 322.02C0.74 300.89 8.55 287.71 19.98 282.5Z"
              id="a8YJS9Vf58"></path>
    </defs>
    <g>
        <g>
            <g>
                <use xlink:href="#a8YJS9Vf58" opacity="1" fill="#d9dada" fill-opacity="1"></use>
                <g>
                    <use xlink:href="#a8YJS9Vf58" opacity="1" fill-opacity="0" stroke="#000000" stroke-width="1" stroke-opacity="0"></use>
                </g>
            </g>
        </g>
    </g>
</svg>