<?xml version="1.0" encoding="UTF-8" standalone="no"?>
<!DOCTYPE svg PUBLIC "-//W3C//DTD SVG 1.1//EN" "http://www.w3.org/Graphics/SVG/1.1/DTD/svg11.dtd">
<svg version="1.1" xmlns="http://www.w3.org/2000/svg" xmlns:xlink="http://www.w3.org/1999/xlink" preserveAspectRatio="xMidYMid meet" viewBox="0 0 300 300"
     width="300" height="300">
    <defs>
        <path d="M76.44 280.65C82.06 272.79 84.35 275.47 86.93 275.47C100.97 262.94 120.61 264.04 122.13 234.91C115.54 229.93 100.61 223.48 94.76 212.95C88.8 224.74 96.31 230.68 108.78 228.14C108.62 228.97 104.13 230.6 103.23 230.91C84.26 237.81 76.91 204 79.25 192.54C79.51 191.24 81.45 185.64 79.21 185.28C75.96 187.6 72.87 217.22 82.68 228.9C90.36 238.04 104.86 246.1 117.34 243.8C94.6 254.64 72.95 233.03 71.77 208.19C71.93 201.85 68.21 170.97 72.87 167.48C72.93 167.44 46.16 136.26 77.42 106.78C82.5 102 92.54 91.59 89.52 84.43C85.3 74.43 86.46 61.48 92.21 57.08C101.26 50.17 118.67 46.26 137.98 42.79C161.12 38.63 195.94 62.22 211.44 81.32C224.76 97.74 234.08 104.05 233.49 127.92C238.78 125.4 255.75 145.17 237.43 158.12C240.87 160.24 241.67 168.56 236.34 179.62C233.11 186.31 233.53 203.1 240.82 206.16C245.6 208.17 248.56 200.17 243.67 198.48C251.28 199.28 247.77 213.68 236.29 217.58C234.76 223.11 243.57 225.3 244.91 224.38C245.14 227.41 234.58 232.24 230.96 223.11C230.94 227.54 236.59 236.44 228.5 240.23C225.41 241.67 223.5 246.65 221.87 249.45C215.75 259.94 202.39 258.08 194.44 251.69C194.36 251.62 217.57 263.74 221.33 243.55C219.78 242.26 202.62 245.58 197.98 235.65C197.23 234.02 194.8 230.71 194.7 230.72C194.56 231.07 182.46 237.41 181.67 237.54C181.38 247.51 184.85 266.75 208.47 270.98C208.47 271.09 209.03 274.92 209.13 275.03C209.92 275.98 208.84 269.84 210.84 272.01C216.67 278.31 261.7 289.64 259.25 302.19C237.46 302.19 63.12 302.19 41.33 302.19C40.93 302.12 40.7 302.1 40.65 302.09C59.51 285.14 53.62 285.51 76.44 280.65Z"
              id="aT2JW3R6u"></path>
    </defs>
    <g>
        <g>
            <g>
                <use xlink:href="#aT2JW3R6u" opacity="1" fill="#d9dada" fill-opacity="1"></use>
                <g>
                    <use xlink:href="#aT2JW3R6u" opacity="1" fill-opacity="0" stroke="#000000" stroke-width="1" stroke-opacity="0"></use>
                </g>
            </g>
        </g>
    </g>
</svg>